# Blender 4.4.3
# www.blender.org
o carpet.001
v 6.191278 0.029216 -10.205015
v 3.188447 0.029216 -10.205014
v 6.191281 0.029216 -1.841983
v 3.188449 0.029216 -1.841982
v 6.191281 0.000000 -1.841983
v 6.191278 0.000000 -10.205015
v 3.188447 0.000000 -10.205014
v 3.188449 0.000000 -1.841982
v 6.191279 0.029216 -7.600440
v 3.188447 0.029216 -7.600439
v 6.191279 0.000000 -7.600440
v 3.188447 0.000000 -7.600439
v -6.451515 0.000000 -10.205011
v -6.451515 0.029216 -10.205011
v -6.451514 0.029216 -7.600436
v -6.451514 0.000000 -7.600436
v -3.630029 0.000000 -7.600437
v -3.630029 0.029216 -7.600437
v -3.630030 0.000000 -10.205012
v -3.630030 0.029216 -10.205012
v -3.630027 0.029216 -2.025819
v -3.630027 0.000000 -2.025819
v -6.451512 0.000000 -2.025818
v -6.451512 0.029216 -2.025818
vn -0.0000 -1.0000 -0.0000
vn -0.0000 1.0000 -0.0000
vn 1.0000 -0.0000 -0.0000
vn -1.0000 -0.0000 -0.0000
vn -0.0000 -0.0000 -1.0000
vn -0.0000 -0.0000 1.0000
vt 0.739411 0.153440
vt 0.739411 0.489584
vt 0.564124 0.489584
vt 0.564124 0.153440
vt 0.001401 0.644426
vt 0.176688 0.644426
vt 0.176688 0.980570
vt 0.001401 0.980570
vt 0.402224 0.992386
vt 0.738368 0.992386
vt 0.738368 0.994092
vt 0.402224 0.994092
vt 0.337545 0.987879
vt 0.489584 0.987879
vt 0.489584 0.989584
vt 0.337545 0.989584
vt 0.742213 0.001401
vt 0.917500 0.001401
vt 0.917500 0.003106
vt 0.742213 0.003106
vt 0.001401 0.983371
vt 0.176688 0.983371
vt 0.176688 0.985077
vt 0.001401 0.985077
vt 0.001401 0.987879
vt 0.001401 0.989584
vt 0.326814 0.996894
vt 0.326814 0.998599
vt 0.001401 0.998599
vt 0.001401 0.996894
vt 0.001401 0.492386
vt 0.176688 0.492386
vt 0.739411 0.001401
vt 0.564124 0.001401
vt 0.492386 0.987879
vt 0.644426 0.987879
vt 0.644426 0.989584
vt 0.492386 0.989584
vt 0.574710 0.644426
vt 0.574710 0.492386
vt 0.739411 0.492386
vt 0.739411 0.644426
vt 0.166102 0.001401
vt 0.166102 0.153440
vt 0.001401 0.153440
vt 0.001401 0.001401
vt 0.574710 0.985077
vt 0.574710 0.983371
vt 0.739411 0.983371
vt 0.739411 0.985077
vt 0.399422 0.992386
vt 0.399422 0.994092
vt 0.001401 0.994092
vt 0.001401 0.992386
vt 0.166102 0.478853
vt 0.001401 0.478853
vt 0.742213 0.005908
vt 0.906914 0.005908
vt 0.906914 0.007614
vt 0.742213 0.007614
vt 0.969838 0.987879
vt 0.969838 0.989584
vt 0.739411 0.969838
vt 0.574710 0.969838
s 0
f 9/1/1 3/2/1 4/3/1 10/4/1
f 11/5/2 12/6/2 8/7/2 5/8/2
f 10/9/3 4/10/3 8/11/3 12/12/3
f 9/13/4 1/14/4 6/15/4 11/16/4
f 4/17/5 3/18/5 5/19/5 8/20/5
f 1/21/6 2/22/6 7/23/6 6/24/6
f 3/25/4 9/13/4 11/16/4 5/26/4
f 18/27/4 17/28/4 22/29/4 21/30/4
f 6/31/2 7/32/2 12/6/2 11/5/2
f 1/33/1 9/1/1 10/4/1 2/34/1
f 14/35/3 15/36/3 16/37/3 13/38/3
f 17/39/2 19/40/2 13/41/2 16/42/2
f 20/43/1 18/44/1 15/45/1 14/46/1
f 19/47/6 20/48/6 14/49/6 13/50/6
f 7/23/6 2/22/6 20/48/6 19/47/6
f 2/34/1 10/4/1 18/44/1 20/43/1
f 12/6/2 7/32/2 19/40/2 17/39/2
f 10/51/5 12/52/5 17/53/5 18/54/5
f 15/45/1 18/44/1 21/55/1 24/56/1
f 24/57/5 21/58/5 22/59/5 23/60/5
f 16/37/3 15/36/3 24/61/3 23/62/3
f 17/39/2 16/42/2 23/63/2 22/64/2
