# Blender 4.4.3
# www.blender.org
o american_wall
v -7.500000 0.000000 -11.500001
v -7.500000 6.000000 -11.500001
v -7.500000 0.000000 -11.855067
v -7.500000 6.000000 -11.855067
v 7.500000 0.000000 -11.500001
v 7.500000 6.000000 -11.500001
v 7.500000 0.000000 -11.855067
v 7.500000 6.000000 -11.855067
vn -1.0000 -0.0000 -0.0000
vn -0.0000 -0.0000 -1.0000
vn 1.0000 -0.0000 -0.0000
vn -0.0000 -0.0000 1.0000
vn -0.0000 -1.0000 -0.0000
vn -0.0000 1.0000 -0.0000
vt 0.401724 0.082571
vt 0.003133 0.082571
vt 0.003133 0.058983
vt 0.401724 0.058983
vt 0.999611 0.140313
vt 0.999611 0.538904
vt 0.003133 0.538904
vt 0.003133 0.140313
vt 0.803837 0.082571
vt 0.405246 0.082571
vt 0.405246 0.058983
vt 0.803837 0.058983
vt 0.999611 0.542426
vt 0.999611 0.941017
vt 0.003133 0.941017
vt 0.003133 0.542426
vt 0.003133 0.113203
vt 0.999611 0.113203
vt 0.999611 0.136790
vt 0.003133 0.136790
vt 0.003133 0.086093
vt 0.999611 0.086093
vt 0.999611 0.109681
vt 0.003133 0.109681
s 0
f 1/1/1 2/2/1 4/3/1 3/4/1
f 3/5/2 4/6/2 8/7/2 7/8/2
f 7/9/3 8/10/3 6/11/3 5/12/3
f 5/13/4 6/14/4 2/15/4 1/16/4
f 3/17/5 7/18/5 5/19/5 1/20/5
f 8/21/6 4/22/6 2/23/6 6/24/6
