# Blender 4.4.3
# www.blender.org
o itali_flag
v 7.057004 4.664883 2.327423
v 7.057005 4.664883 3.127423
v 7.047005 4.664883 3.127423
v 7.047005 4.664883 2.327423
v 7.057005 4.664883 2.727423
v 7.057005 2.664883 2.727423
v 7.047005 4.664883 2.727423
v 7.047005 2.664883 2.727423
v 7.047005 2.896853 3.127423
v 7.047005 2.893995 2.327423
v 7.057005 2.893995 2.327423
v 7.057005 2.896943 3.127423
vn 1.0000 -0.0000 -0.0000
vn -1.0000 -0.0000 -0.0000
vn -0.0000 -0.0000 -1.0000
vn -0.0000 1.0000 -0.0000
vn 0.0039 -0.8650 0.5017
vn -0.0000 -0.8677 -0.4970
vn -0.0000 -0.0000 1.0000
vt -0.000378 1.135592
vt 0.502766 1.135592
vt 0.502766 -0.217378
vt -0.000378 -0.104977
vt 0.498507 1.135592
vt 0.498507 -0.217378
vt 1.001651 -0.103575
vt 1.001651 1.135592
vt 0.147016 0.709764
vt 0.147016 0.816866
vt 0.146656 0.816866
vt 0.146656 0.709764
vt 1.000910 -0.103531
vt 1.000910 1.135592
vt 0.500985 0.996537
vt -0.002466 0.996537
vt -0.002466 0.992807
vt 0.500985 0.992807
vt 0.549783 0.806986
vt 0.897590 0.806986
vt 0.897457 0.811426
vt 0.549783 0.811426
vt 1.004437 0.996537
vt 1.004437 0.992807
vt 0.000362 1.135592
vt 0.000362 -0.104977
vt 0.475508 0.830203
vt 0.475508 0.832953
vt 0.047605 0.832953
vt 0.047605 0.830203
vt 0.847065 0.682928
vt 0.847425 0.682939
vt 0.847425 0.898067
vt 0.847065 0.898067
s 0
f 1/1/1 5/2/1 6/3/1 11/4/1
f 7/5/2 8/6/2 9/7/2 3/8/2
f 1/9/3 11/10/3 10/11/3 4/12/3
f 12/13/1 6/3/1 5/2/1 2/14/1
f 5/15/4 1/16/4 4/17/4 7/18/4
f 6/19/5 12/20/5 9/21/5 8/22/5
f 2/23/4 5/15/4 7/18/4 3/24/4
f 4/25/2 10/26/2 8/6/2 7/5/2
f 6/27/6 8/28/6 10/29/6 11/30/6
f 9/31/7 12/32/7 2/33/7 3/34/7
