# Blender 4.4.3
# www.blender.org
o jerman_flag
v -4.605899 4.599810 11.052918
v -5.405899 4.599810 11.052918
v -5.405899 4.599810 11.042918
v -4.605899 4.599810 11.042918
v -5.005899 4.599810 11.052918
v -5.005898 2.599810 11.052918
v -5.005899 4.599810 11.042918
v -5.005898 2.599810 11.042918
v -5.405899 2.831780 11.042918
v -4.605899 2.828922 11.042918
v -4.605899 2.828922 11.052918
v -5.405899 2.831869 11.052918
vn -0.0000 -0.0000 1.0000
vn -0.0000 -0.0000 -1.0000
vn 1.0000 -0.0000 -0.0000
vn -0.0000 1.0000 -0.0000
vn -0.5017 -0.8650 0.0038
vn 0.4970 -0.8677 -0.0000
vn -1.0000 -0.0000 -0.0000
vt -0.124830 0.091775
vt -0.124830 0.500095
vt 1.236237 0.500094
vt 1.080318 0.091775
vt -0.124830 0.500095
vt 1.236237 0.500095
vt 1.078374 0.908414
vt -0.124830 0.908414
vt 0.910770 0.902243
vt 0.910770 0.016799
vt 0.913470 0.016799
vt 0.913470 0.902243
vt 1.078312 0.908414
vt -0.124830 0.908414
vt 0.916170 0.216799
vt 0.916170 0.416799
vt 0.918870 0.416799
vt 0.918870 0.216799
vt 0.918870 0.016799
vt 0.921570 0.016799
vt 0.921570 0.216799
vt 0.916170 0.016799
vt 0.921570 0.416799
vt 0.918870 0.416799
vt 0.916170 0.016799
vt 0.913470 0.016844
vt 0.913470 0.900814
vt 0.916170 0.900814
s 0
f 1/1/1 5/2/1 6/3/1 11/4/1
f 7/5/2 8/6/2 9/7/2 3/8/2
f 1/9/3 11/10/3 10/11/3 4/12/3
f 12/13/1 6/3/1 5/2/1 2/14/1
f 5/15/4 1/16/4 4/17/4 7/18/4
f 6/18/5 12/19/5 9/20/5 8/21/5
f 2/22/4 5/15/4 7/18/4 3/19/4
f 4/1/2 10/4/2 8/6/2 7/5/2
f 6/18/6 8/21/6 10/23/6 11/24/6
f 9/25/7 12/26/7 2/27/7 3/28/7
