# Blender 4.4.3
# www.blender.org
o roof
v -7.500000 6.000000 11.500000
v -7.500000 6.569485 11.500000
v -7.500000 6.000000 -11.500000
v -7.500000 6.569485 -11.500000
v 7.500000 6.000000 11.500000
v 7.500000 6.569485 11.500000
v 7.500000 6.000000 -11.500000
v 7.500000 6.569485 -11.500000
vn -1.0000 -0.0000 -0.0000
vn -0.0000 -0.0000 -1.0000
vn 1.0000 -0.0000 -0.0000
vn -0.0000 -0.0000 1.0000
vn -0.0000 -1.0000 -0.0000
vn -0.0000 1.0000 -0.0000
vt 0.956843 0.715606
vt 0.939163 0.715606
vt 0.939163 0.001559
vt 0.956843 0.001559
vt 0.998441 0.467242
vt 0.980761 0.467242
vt 0.980761 0.001559
vt 0.998441 0.001559
vt 0.977642 0.715606
vt 0.959962 0.715606
vt 0.959962 0.001559
vt 0.977642 0.001559
vt 0.998441 0.936044
vt 0.980761 0.936044
vt 0.980761 0.470361
vt 0.998441 0.470361
vt 0.467242 0.715606
vt 0.001559 0.715606
vt 0.001559 0.001559
vt 0.467242 0.001559
vt 0.936044 0.715606
vt 0.470361 0.715606
vt 0.470361 0.001559
vt 0.936044 0.001559
s 0
f 1/1/1 2/2/1 4/3/1 3/4/1
f 3/5/2 4/6/2 8/7/2 7/8/2
f 7/9/3 8/10/3 6/11/3 5/12/3
f 5/13/4 6/14/4 2/15/4 1/16/4
f 3/17/5 7/18/5 5/19/5 1/20/5
f 8/21/6 4/22/6 2/23/6 6/24/6
