# Blender 4.4.3
# www.blender.org
o roof.001
v -10.800000 6.000000 1.800000
v -10.800000 6.569485 1.800000
v -10.800000 6.000000 -1.800000
v -10.800000 6.569485 -1.800000
v -7.500000 6.000000 1.800000
v -7.500000 6.569485 1.800000
v -7.500000 6.000000 -1.800000
v -7.500000 6.569485 -1.800000
vn -1.0000 -0.0000 -0.0000
vn -0.0000 -0.0000 -1.0000
vn 1.0000 -0.0000 -0.0000
vn -0.0000 -0.0000 1.0000
vn -0.0000 -1.0000 -0.0000
vn -0.0000 1.0000 -0.0000
vt 0.902323 0.998165
vt 0.877771 0.998165
vt 0.877771 0.001835
vt 0.902323 0.001835
vt 0.958767 0.436133
vt 0.934215 0.436133
vt 0.934215 0.001835
vt 0.958767 0.001835
vt 0.930545 0.998165
vt 0.905993 0.998165
vt 0.905993 0.001835
vt 0.930545 0.001835
vt 0.958767 0.874102
vt 0.934215 0.874102
vt 0.934215 0.439803
vt 0.958767 0.439803
vt 0.436133 0.998165
vt 0.001835 0.998165
vt 0.001835 0.001835
vt 0.436133 0.001835
vt 0.874102 0.998165
vt 0.439803 0.998165
vt 0.439803 0.001835
vt 0.874102 0.001835
s 0
f 1/1/1 2/2/1 4/3/1 3/4/1
f 3/5/2 4/6/2 8/7/2 7/8/2
f 7/9/3 8/10/3 6/11/3 5/12/3
f 5/13/4 6/14/4 2/15/4 1/16/4
f 3/17/5 7/18/5 5/19/5 1/20/5
f 8/21/6 4/22/6 2/23/6 6/24/6
