# Blender 4.4.3
# www.blender.org
o entry_r
v -7.800000 0.000000 1.800000
v -7.800000 6.000000 1.800000
v -10.800000 0.000000 1.800000
v -10.800000 6.000000 1.800000
v -7.800000 0.000000 1.500000
v -7.800000 6.000000 1.500000
v -10.800000 0.000000 1.500000
v -10.800000 6.000000 1.500000
vn -0.0000 -0.0000 -1.0000
vn -0.0000 -0.0000 1.0000
vn -0.0000 -1.0000 -0.0000
vn -1.0000 -0.0000 -0.0000
vn 1.0000 -0.0000 -0.0000
vn -0.0000 1.0000 -0.0000
vt 0.428561 0.001858
vt 0.428561 0.855263
vt 0.001858 0.855263
vt 0.001858 0.001858
vt 0.432278 0.001858
vt 0.858980 0.001858
vt 0.858980 0.855263
vt 0.432278 0.855263
vt 0.998142 0.001858
vt 0.998142 0.428561
vt 0.955471 0.428561
vt 0.955471 0.001858
vt 0.905367 0.001858
vt 0.905367 0.855263
vt 0.862697 0.855263
vt 0.862697 0.001858
vt 0.951754 0.001858
vt 0.951754 0.855263
vt 0.909084 0.855263
vt 0.909084 0.001858
vt 0.955471 0.858980
vt 0.955471 0.432278
vt 0.998142 0.432278
vt 0.998142 0.858980
s 0
f 6/1/1 5/2/1 7/3/1 8/4/1
f 2/5/2 4/6/2 3/7/2 1/8/2
f 1/9/3 3/10/3 7/11/3 5/12/3
f 8/13/4 7/14/4 3/15/4 4/16/4
f 2/17/5 1/18/5 5/19/5 6/20/5
f 4/21/6 2/22/6 6/23/6 8/24/6
