# Blender 4.4.3
# www.blender.org
o weapon_display.003
v -6.931514 0.000000 4.244469
v -6.900001 0.697393 4.181442
v -6.931513 0.000000 5.318416
v -6.900000 0.697393 5.381442
v -7.468488 0.000000 4.244469
v -7.500001 0.697393 4.181442
v -7.468487 0.000000 5.318416
v -7.500000 0.697393 5.381443
v -7.500001 0.030479 4.181442
v -6.900001 0.030479 4.181442
v -7.500000 0.030479 5.381443
v -6.900000 0.030479 5.381442
v -6.900001 0.665672 4.181442
v -6.900000 0.665672 5.381442
v -7.500000 0.665672 5.381443
v -7.500001 0.665672 4.181442
v -6.900000 0.654042 5.381442
v -7.500000 0.654042 5.381443
v -7.500001 0.654042 4.181442
v -6.900001 0.654042 4.181442
v -6.915276 0.654338 4.211993
v -6.915276 0.665376 4.211993
v -7.484725 0.665376 4.211993
v -7.484725 0.665376 5.350892
v -6.915276 0.665376 5.350892
v -6.915276 0.654338 5.350892
v -7.484725 0.654338 5.350892
v -7.484725 0.654338 4.211993
v -7.468488 0.027871 4.244469
v -6.931514 0.027871 4.244469
v -7.468487 0.027871 5.318416
v -6.931513 0.027871 5.318416
v -6.900001 0.665672 4.294676
v -6.900001 0.665672 4.330410
v -6.900001 0.697393 4.294676
v -6.900001 0.697393 4.330410
v -6.896031 0.697393 4.294676
v -6.896031 0.697393 4.330410
v -6.896031 0.665672 4.294676
v -6.896031 0.665672 4.330410
vn 1.0000 -0.0000 -0.0000
vn -0.0000 -0.0000 1.0000
vn -1.0000 -0.0000 -0.0000
vn -0.0000 -0.0000 -1.0000
vn -0.0000 -1.0000 -0.0000
vn -0.0000 1.0000 -0.0000
vn -0.0244 -0.9993 -0.0291
vn 0.0244 -0.9993 -0.0291
vn 0.0469 -0.9987 -0.0179
vn -0.0469 -0.9987 -0.0179
vn 0.0244 -0.9993 0.0291
vn -0.0244 -0.9993 0.0291
vn -0.0469 -0.9987 0.0179
vn 0.0469 -0.9987 0.0179
vn 0.0129 -0.9999 -0.0000
vn -0.0057 1.0000 0.0068
vn 0.0057 1.0000 0.0068
vn 0.0110 0.9999 0.0042
vn -0.0110 0.9999 0.0042
vn -0.0057 -1.0000 -0.0068
vn 0.0057 -1.0000 -0.0068
vn 0.0110 -0.9999 -0.0042
vn -0.0110 -0.9999 -0.0042
vn 0.0057 1.0000 -0.0068
vn -0.0057 1.0000 -0.0068
vn -0.0110 0.9999 -0.0042
vn 0.0110 0.9999 -0.0042
vn 0.0057 -1.0000 0.0068
vn -0.0057 -1.0000 0.0068
vn -0.0110 -0.9999 0.0042
vn 0.0110 -0.9999 0.0042
vt 0.690009 0.258711
vt 0.679259 0.258711
vt 0.679259 0.220335
vt 0.690009 0.220335
vt 0.888522 0.619040
vt 0.877771 0.619040
vt 0.877771 0.415695
vt 0.888522 0.415695
vt 0.868460 0.409692
vt 0.857710 0.409692
vt 0.857710 0.003001
vt 0.868460 0.003001
vt 0.888522 0.828388
vt 0.877771 0.828388
vt 0.877771 0.625043
vt 0.888522 0.625043
vt 0.632390 0.415695
vt 0.814376 0.415695
vt 0.814376 0.779665
vt 0.632390 0.779665
vt 0.437669 0.003001
vt 0.641014 0.003001
vt 0.641014 0.359206
vt 0.641014 0.371316
vt 0.641014 0.409692
vt 0.437669 0.409692
vt 0.417040 0.822386
vt 0.213695 0.822386
vt 0.224375 0.801025
vt 0.406360 0.801026
vt 0.213695 0.415695
vt 0.417040 0.415695
vt 0.406360 0.437055
vt 0.224375 0.437055
vt 0.004346 0.771899
vt 0.004346 0.784010
vt 0.003001 0.784010
vt 0.003001 0.771899
vt 0.831129 0.771899
vt 0.820378 0.771899
vt 0.820378 0.415695
vt 0.831129 0.415695
vt 0.423042 0.415695
vt 0.626388 0.415695
vt 0.621211 0.426049
vt 0.428219 0.426049
vt 0.207692 0.822386
vt 0.004346 0.822386
vt 0.009523 0.812032
vt 0.202515 0.812032
vt 0.626388 0.822386
vt 0.423042 0.822386
vt 0.428219 0.812032
vt 0.621211 0.812032
vt 0.004346 0.415695
vt 0.207692 0.415695
vt 0.202515 0.426049
vt 0.009523 0.426049
vt 0.431666 0.409692
vt 0.220335 0.409692
vt 0.220335 0.003001
vt 0.431666 0.003001
vt 0.648362 0.214332
vt 0.648362 0.003001
vt 0.851707 0.003001
vt 0.851707 0.214332
vt 0.214332 0.409692
vt 0.003001 0.409692
vt 0.003001 0.003001
vt 0.214332 0.003001
vt 0.632390 0.996999
vt 0.632390 0.785668
vt 0.835736 0.785668
vt 0.835736 0.996999
vt 0.887947 0.195993
vt 0.884206 0.195993
vt 0.884206 0.003001
vt 0.887947 0.003001
vt 0.871769 0.801678
vt 0.868028 0.801678
vt 0.868028 0.415695
vt 0.871769 0.415695
vt 0.887947 0.394987
vt 0.884206 0.394987
vt 0.884206 0.201995
vt 0.887947 0.201995
vt 0.878204 0.388984
vt 0.874463 0.388984
vt 0.874463 0.003001
vt 0.878204 0.003001
vt 0.852580 0.415695
vt 0.862026 0.415695
vt 0.862026 0.779665
vt 0.852580 0.779665
vt 0.837131 0.779665
vt 0.837131 0.415695
vt 0.846577 0.415695
vt 0.846577 0.779665
vt 0.648362 0.402320
vt 0.648362 0.220335
vt 0.657807 0.220335
vt 0.657807 0.402320
vt 0.663810 0.402320
vt 0.663810 0.220335
vt 0.673256 0.220335
vt 0.673256 0.402320
vt 0.690009 0.276824
vt 0.679259 0.276824
vt 0.679259 0.264713
vt 0.690009 0.264713
vt 0.642359 0.359206
vt 0.642359 0.371316
vt 0.680604 0.282826
vt 0.680604 0.293577
vt 0.679258 0.293577
vt 0.679258 0.282826
vt 0.679259 0.310330
vt 0.679259 0.299579
vt 0.680604 0.299579
vt 0.680604 0.310330
s 1
f 13/1/1 2/2/1 35/3/1 33/4/1
f 14/5/2 4/6/2 8/7/2 15/8/2
f 15/9/3 8/10/3 6/11/3 16/12/3
f 16/13/4 6/14/4 2/15/4 13/16/4
f 3/17/5 7/18/5 5/19/5 1/20/5
f 8/21/6 4/22/6 36/23/6 35/24/6 2/25/6 6/26/6
f 9/27/7 10/28/8 30/29/9 29/30/10
f 12/31/11 11/32/12 31/33/13 32/34/14
f 34/35/15 33/36/15 39/37/5 40/38/5
f 34/39/1 36/40/1 4/41/1 14/42/1
f 18/43/16 17/44/17 26/45/18 27/46/19
f 16/47/20 13/48/21 22/49/22 23/50/23
f 20/51/24 19/52/25 28/53/26 21/54/27
f 14/55/28 15/56/29 24/57/30 25/58/31
f 10/59/1 20/60/1 17/61/1 12/62/1
f 12/63/2 17/64/2 18/65/2 11/66/2
f 11/67/3 18/68/3 19/69/3 9/70/3
f 9/71/4 19/72/4 20/73/4 10/74/4
f 28/75/4 23/76/4 22/77/4 21/78/4
f 27/79/3 24/80/3 23/81/3 28/82/3
f 26/83/2 25/84/2 24/85/2 27/86/2
f 21/87/1 22/88/1 25/89/1 26/90/1
f 13/48/21 33/36/15 34/35/15 14/55/28 25/58/31 22/49/22
f 15/56/29 16/47/20 23/50/23 24/57/30
f 19/52/25 18/43/16 27/46/19 28/53/26
f 17/44/17 20/51/24 21/54/27 26/45/18
f 29/91/3 5/92/3 7/93/3 31/94/3
f 30/95/1 32/96/1 3/97/1 1/98/1
f 29/99/4 30/100/4 1/101/4 5/102/4
f 32/103/2 31/104/2 7/105/2 3/106/2
f 10/28/8 12/31/11 32/34/14 30/29/9
f 11/32/12 9/27/7 29/30/10 31/33/13
f 39/107/1 37/108/1 38/109/1 40/110/1
f 35/24/6 36/23/6 38/111/6 37/112/6
f 36/113/2 34/114/2 40/115/2 38/116/2
f 33/117/4 35/118/4 37/119/4 39/120/4
