# Blender 4.4.3
# www.blender.org
o tabel
v 7.491294 -0.002607 -5.381444
v 7.491294 0.697393 -5.381444
v 7.491294 -0.002607 -5.281445
v 7.491294 0.697393 -5.281445
v 6.791294 -0.002607 -5.381444
v 6.791294 0.697393 -5.381444
v 6.791294 -0.002607 -5.281445
v 6.791294 0.697393 -5.281445
v 7.491294 0.522393 -5.381444
v 7.491294 0.522393 -5.281445
v 6.791294 0.522393 -5.281445
v 6.791294 0.522393 -5.381444
v 7.491295 -0.002607 -4.281445
v 7.491295 0.697393 -4.281445
v 7.491295 -0.002607 -4.181445
v 7.491295 0.697393 -4.181445
v 6.791295 -0.002607 -4.281445
v 6.791295 0.697393 -4.281445
v 6.791295 -0.002607 -4.181444
v 6.791295 0.697393 -4.181444
v 7.491295 0.522393 -4.281445
v 7.491295 0.522393 -4.181445
v 6.791295 0.522393 -4.181444
v 6.791295 0.522393 -4.281445
vn 1.0000 -0.0000 -0.0000
vn -0.0000 -1.0000 -0.0000
vn -1.0000 -0.0000 -0.0000
vn -0.0000 -0.0000 -1.0000
vn -0.0000 1.0000 -0.0000
vn -0.0000 -0.0000 1.0000
vt 0.339038 0.457030
vt 0.272759 0.457030
vt 0.272759 0.419157
vt 0.339038 0.419157
vt 0.267663 0.840862
vt 0.002548 0.840862
vt 0.002548 0.462127
vt 0.267663 0.462127
vt 0.609248 0.040422
vt 0.542970 0.040422
vt 0.542970 0.002548
vt 0.609248 0.002548
vt 0.339037 0.727241
vt 0.272759 0.727241
vt 0.272759 0.462127
vt 0.339037 0.462127
vt 0.851054 0.002548
vt 0.851054 0.267663
vt 0.813180 0.267663
vt 0.813180 0.002548
vt 0.267663 0.040422
vt 0.002548 0.040422
vt 0.002548 0.002548
vt 0.267663 0.002548
vt 0.537873 0.727241
vt 0.537873 0.462127
vt 0.808084 0.040422
vt 0.808084 0.002548
vt 0.471595 0.997452
vt 0.272759 0.997452
vt 0.272759 0.732337
vt 0.471595 0.732337
vt 0.537874 0.457030
vt 0.537874 0.419157
vt 0.339038 0.040422
vt 0.272759 0.040422
vt 0.272759 0.002548
vt 0.339038 0.002548
vt 0.609248 0.727241
vt 0.542970 0.727241
vt 0.542970 0.462126
vt 0.609248 0.462126
vt 0.609248 0.457030
vt 0.542970 0.457030
vt 0.542970 0.419157
vt 0.609248 0.419157
vt 0.851054 0.272759
vt 0.851054 0.537873
vt 0.813180 0.537873
vt 0.813180 0.272759
vt 0.267663 0.457030
vt 0.002548 0.457030
vt 0.002548 0.419157
vt 0.267663 0.419157
vt 0.675527 0.997452
vt 0.476691 0.997452
vt 0.476691 0.732337
vt 0.675527 0.732337
vt 0.808084 0.457030
vt 0.808084 0.419157
vt 0.808084 0.727241
vt 0.808084 0.462126
vt 0.537874 0.040422
vt 0.537874 0.002548
s 0
f 9/1/1 2/2/1 4/3/1 10/4/1
f 21/5/2 24/6/2 11/7/2 10/8/2
f 11/9/3 8/10/3 6/11/3 12/12/3
f 12/13/4 6/14/4 2/15/4 9/16/4
f 3/17/2 7/18/2 5/19/2 1/20/2
f 8/21/5 4/22/5 2/23/5 6/24/5
f 5/25/4 12/13/4 9/16/4 1/26/4
f 7/27/3 11/9/3 12/12/3 5/28/3
f 3/29/6 10/30/6 11/31/6 7/32/6
f 1/33/1 9/1/1 10/4/1 3/34/1
f 21/35/1 14/36/1 16/37/1 22/38/1
f 22/39/6 16/40/6 20/41/6 23/42/6
f 23/43/3 20/44/3 18/45/3 24/46/3
f 14/36/1 21/35/1 10/4/1 4/3/1
f 15/47/2 19/48/2 17/49/2 13/50/2
f 20/51/5 16/52/5 14/53/5 18/54/5
f 17/55/4 24/56/4 21/57/4 13/58/4
f 19/59/3 23/43/3 24/46/3 17/60/3
f 15/61/6 22/39/6 23/42/6 19/62/6
f 13/63/1 21/35/1 22/38/1 15/64/1
f 24/46/3 18/45/3 8/10/3 11/9/3
f 18/54/5 14/53/5 4/22/5 8/21/5
