# Blender 4.4.3
# www.blender.org
o jerman_wall
v -7.500000 0.000000 11.855067
v -7.500000 6.000000 11.855067
v -7.500000 0.000000 11.500000
v -7.500000 6.000000 11.500000
v 7.500000 0.000000 11.855067
v 7.500000 6.000000 11.855067
v 7.500000 0.000000 11.500000
v 7.500000 6.000000 11.500000
vn -1.0000 -0.0000 -0.0000
vn -0.0000 -0.0000 -1.0000
vn 1.0000 -0.0000 -0.0000
vn -0.0000 -0.0000 1.0000
vn -0.0000 -1.0000 -0.0000
vn -0.0000 1.0000 -0.0000
vt 0.860207 0.400352
vt 0.860207 0.001761
vt 0.883795 0.001761
vt 0.883795 0.400352
vt 0.400352 0.998239
vt 0.001761 0.998239
vt 0.001761 0.001761
vt 0.400352 0.001761
vt 0.860207 0.802465
vt 0.860207 0.403874
vt 0.883795 0.403874
vt 0.883795 0.802465
vt 0.802465 0.998239
vt 0.403874 0.998239
vt 0.403874 0.001761
vt 0.802466 0.001761
vt 0.829575 0.001761
vt 0.829575 0.998239
vt 0.805988 0.998239
vt 0.805988 0.001761
vt 0.856685 0.001761
vt 0.856685 0.998239
vt 0.833097 0.998239
vt 0.833098 0.001761
s 0
f 1/1/1 2/2/1 4/3/1 3/4/1
f 3/5/2 4/6/2 8/7/2 7/8/2
f 7/9/3 8/10/3 6/11/3 5/12/3
f 5/13/4 6/14/4 2/15/4 1/16/4
f 3/17/5 7/18/5 5/19/5 1/20/5
f 8/21/6 4/22/6 2/23/6 6/24/6
